<?xml version="1.0" encoding="UTF-8"?>
<svg id="Laag_1" data-name="Laag 1" xmlns="http://www.w3.org/2000/svg" width="94.77mm" height="94.93mm" viewBox="0 0 268.63 269.09">
  <defs>
    <style>
      .cls-1 {
        fill: #fff;
        stroke-width: 0px;
      }
    </style>
  </defs>
  <path class="cls-1" d="M54.27,269.09c-18.82-10.9-24.67-26.6-13.68-39.88,4.08-4.93,11.29-10.11,17.18-10.24,41.21-.88,82.45-.47,127.44-2.51-3.49-1.68-7.78-2.58-10.37-5.17C120.06,156.6,65.49,101.68,10.79,46.89,2.61,38.7-2.57,29.88,1.31,17.84,6.52,1.7,23.99-4.99,38.38,4.08c4.38,2.76,8.27,6.47,11.96,10.16,53.54,53.47,107,107.02,160.5,160.53,2.65,2.65,5.46,5.13,6.53,6.13,0-36.97-.05-74.94.06-112.91.01-4.88-.08-10.05,1.43-14.57,3.21-9.62,10.24-15.93,20.36-17.66,10.31-1.76,18.44,2.52,24.43,10.91,1.81,2.53,3.33,5.26,4.98,7.89v195.6c-6.3,6.31-12.61,12.62-18.91,18.93H54.27Z"/>
</svg>