<?xml version="1.0" encoding="UTF-8"?>
<svg id="Laag_1" data-name="Laag 1" xmlns="http://www.w3.org/2000/svg" width="106.1mm" height="124.14mm" viewBox="0 0 300.75 351.89">
  <defs>
    <style>
      .cls-1 {
        fill: #fff;
        stroke-width: 0px;
      }
    </style>
  </defs>
  <path class="cls-1" d="M142.7,351.89c-13.64-8.75-17.32-21.25-17.18-37.15.64-72.33.28-144.68.28-217.02,0-4.47,0-8.94,0-13.46-26.1,26.23-51.7,52.07-77.45,77.76-3.86,3.85-7.93,8-12.72,10.31-10.4,5.02-20.91,4.14-28.88-4.8-7.72-8.67-9.07-18.93-2.73-29.14,2.62-4.21,6.17-7.94,9.7-11.48C51.59,88.97,89.49,51.09,127.46,13.28c17.59-17.52,29.52-17.71,46.78-.55,38.97,38.76,78.09,77.37,116.39,116.78,5.76,5.93,10.64,16.05,10.07,23.81-.5,6.92-7.97,16.91-14.42,18.9-7.7,2.38-20.16.66-26.08-4.46-29.7-25.69-57.95-53.06-86.7-79.85.79-1.47,1.57-2.94,2.36-4.41,0,4.25,0,8.5,0,12.75,0,73.26-.4,146.52.32,219.77.15,15.64-4.03,27.33-16.97,35.86h-16.51Z"/>
</svg>