<?xml version="1.0" encoding="UTF-8"?>
<svg id="Laag_1" data-name="Laag 1" xmlns="http://www.w3.org/2000/svg" width="94.9mm" height="94.83mm" viewBox="0 0 269.01 268.8">
  <defs>
    <style>
      .cls-1 {
        fill: #fff;
        stroke-width: 0px;
      }
    </style>
  </defs>
  <path class="cls-1" d="M239.59,268.8c-7.33-5.14-15.56-9.37-21.84-15.58-53.51-52.89-106.66-106.14-159.94-159.26-2.64-2.63-5.45-5.1-6.6-6.17,0,37.04.07,74.98-.08,112.91-.02,5.18-.27,10.63-1.87,15.49-3.71,11.32-15.8,18.36-27.25,16.79-11.99-1.64-21.69-12.55-21.83-25.74-.3-27.29-.11-54.59-.12-81.89,0-31.84-.06-63.69.02-95.53C.13,10.54,10.53.1,29.95.07c58.09-.1,116.18-.09,174.27,0,16.44.03,28.12,9.9,29.07,24.08.94,14.04-9.79,26.5-26.12,26.83-39.77.8-79.57.26-118.87.26.71.77,2.97,3.34,5.39,5.76,53.88,54.01,107.84,107.93,161.57,162.09,5.3,5.35,9.19,12.09,13.74,18.19v12.61c-6.3,6.3-12.61,12.61-18.91,18.91h-10.51Z"/>
</svg>