<?xml version="1.0" encoding="UTF-8"?>
<svg id="Laag_1" data-name="Laag 1" xmlns="http://www.w3.org/2000/svg" width="94.88mm" height="95.01mm" viewBox="0 0 268.96 269.33">
  <defs>
    <style>
      .cls-1 {
        fill: #fff;
        stroke-width: 0px;
      }
    </style>
  </defs>
  <path class="cls-1" d="M212.23,269.33H21C5.19,263.77-.1,252.07,0,236c.34-56.01.13-112.02.14-168.03,0-2.8-.16-5.63.18-8.39,1.69-13.84,12.95-23.88,26.22-23.55,12.4.31,23.65,10.1,23.83,23.29.57,40.86.21,81.73.21,122.6.59,1.19,1.17,2.38,1.76,3.57,1.74-3.46,2.73-7.68,5.33-10.28C111.52,121.17,165.54,67.32,219.54,13.44c19.61-19.57,34.93-17.82,49.43,5.6v10.52c-5.12,7.34-9.32,15.6-15.52,21.87-53.06,53.74-106.49,107.11-159.79,160.6-2.49,2.5-4.88,5.11-8.51,8.92,8.5-1.1,14.68-2.55,20.88-2.6,32.85-.25,65.7-.25,98.55-.07,4.42.02,9.16.78,13.18,2.52,9.78,4.24,15.55,12.07,15.38,22.88-.21,13.71-8.68,21.39-20.91,25.65Z"/>
</svg>