<?xml version="1.0" encoding="UTF-8"?>
<svg id="Laag_1" data-name="Laag 1" xmlns="http://www.w3.org/2000/svg" width="106.4mm" height="124.05mm" viewBox="0 0 301.61 351.63">
  <defs>
    <style>
      .cls-1 {
        fill: #fff;
        stroke-width: 0px;
      }
    </style>
  </defs>
  <path class="cls-1" d="M142.59,351.63c-36.29-35.48-72.6-70.94-108.86-106.45-8.19-8.02-16.39-16.03-24.28-24.33-12.02-12.65-12.55-27.32-1.71-37.75,10.17-9.78,24.46-9.01,36.89,2.43,27.91,25.69,55.68,51.54,83.5,77.32-.72,1.4-1.43,2.8-2.15,4.2,0-4.75,0-9.51,0-14.26,0-72.84,0-145.69.02-218.53,0-4.57-.28-9.26.58-13.7C128.9,8.55,139.16.08,150.72,0c11.37-.08,21.85,8.5,24.11,20.54,1,5.34.79,10.95.79,16.43.04,76.95.03,153.91.03,230.42,25.24-25.27,50.46-50.57,75.77-75.79,3.88-3.87,7.76-7.96,12.33-10.87,10.42-6.63,21.09-6.14,30.39,2.12,8.81,7.82,9.85,20.92,2.98,31.36-2.49,3.78-5.73,7.13-8.95,10.35-37.9,37.94-75.82,75.85-113.83,113.66-4.79,4.76-10.15,8.95-15.24,13.41h-16.51Z"/>
</svg>