<?xml version="1.0" encoding="UTF-8"?>
<svg id="Laag_1" data-name="Laag 1" xmlns="http://www.w3.org/2000/svg" width="124.09mm" height="106.31mm" viewBox="0 0 351.75 301.35">
  <defs>
    <style>
      .cls-1 {
        fill: #fff;
        stroke-width: 0px;
      }
    </style>
  </defs>
  <path class="cls-1" d="M0,145.19c6.78-14.83,18.63-19.43,34.42-19.33,73.67.42,147.35.19,221.03.19,4.34,0,8.69,0,12.51,0-27.34-27.14-54.29-53.62-80.91-80.44-12.6-12.7-13.92-27.73-4.21-37.85,10.64-11.09,25.55-10.37,38.83,2.81,39.96,39.64,79.78,79.43,119.4,119.41,14.24,14.37,14.24,27.34-.08,41.79-39.61,39.99-79.45,79.75-119.38,119.42-12.67,12.59-26.94,13.41-37.65,2.97-10.59-10.32-10.22-25.14,2.17-37.71,26.59-26.98,53.65-53.5,80.59-80.27-2.8-.14-7.03-.52-11.26-.53-73.22-.04-146.44-.43-219.66.29-15.64.15-27.35-3.97-35.81-17v-13.74Z"/>
</svg>