<?xml version="1.0" encoding="UTF-8"?>
<svg id="Laag_1" data-name="Laag 1" xmlns="http://www.w3.org/2000/svg" width="123.96mm" height="106.38mm" viewBox="0 0 351.38 301.56">
  <defs>
    <style>
      .cls-1 {
        fill: #fff;
        stroke-width: 0px;
      }
    </style>
  </defs>
  <path class="cls-1" d="M0,142.63C44.22,97.66,88.26,52.51,132.8,7.86c10.6-10.62,24.67-10.08,34.61-.76,9.78,9.18,11.06,23.73,1.05,34.51-26.75,28.81-54.25,56.91-84.81,84.39,4.5,0,9.01,0,13.51,0,73.26,0,146.53,0,219.79,0,4.12,0,8.3-.29,12.35.27,12.62,1.73,21.84,12.01,22.08,24.15.25,12.65-9.27,23.49-22.53,25.07-5.43.65-10.97.47-16.46.47-75.98.03-151.96.02-228.08.02,25.73,25.58,51.2,50.8,76.56,76.14,16.01,16,18.71,30.73,7.93,41.82-11.72,12.05-26.14,9.78-42.79-6.87-37.24-37.23-74.49-74.45-111.63-111.78C9.29,170.2,4.78,164.53,0,159.11c0-5.5,0-10.99,0-16.49Z"/>
</svg>