<?xml version="1.0" encoding="UTF-8"?>
<svg id="Laag_1" data-name="Laag 1" xmlns="http://www.w3.org/2000/svg" width="94.9mm" height="95.07mm" viewBox="0 0 268.99 269.49">
  <defs>
    <style>
      .cls-1 {
        fill: #fff;
        stroke-width: 0px;
      }
    </style>
  </defs>
  <path class="cls-1" d="M268.99,19.2v195.6c-4.16,4.99-7.46,11.3-12.65,14.73-17.83,11.76-38.22-1.41-38.54-25.23-.52-38.9-.14-77.81-.14-115.78-1.21,1.16-3.99,3.7-6.66,6.36-53.5,53.37-106.92,106.82-160.57,160.04-5.6,5.56-12.56,9.75-18.89,14.57h-12.61c-5.13-4.39-11.71-7.88-15.1-13.35-7.27-11.74-4.1-22.58,8.67-35.38,54.19-54.29,108.4-108.56,162.78-162.67,2.62-2.61,6.86-3.59,10.34-5.33-43.06-1.28-82.5-1.26-121.93-1.3-10.52-.01-19.18-3.92-24.61-13.26C28.82,20.57,41.92.39,63.9.33,120.62.17,177.34.69,234.05,0c16.12-.19,27.76,4.64,34.95,19.19Z"/>
</svg>